<?xml version="1.0" encoding="utf-8"?>
<!-- Generator: Adobe Illustrator 19.0.0, SVG Export Plug-In . SVG Version: 6.00 Build 0)  -->
<svg version="1.1" id="Layer_1" xmlns="http://www.w3.org/2000/svg" xmlns:xlink="http://www.w3.org/1999/xlink" x="0px" y="0px"
	 viewBox="-30 178 550.6 438" style="enable-background:new -30 178 550.6 438;" xml:space="preserve">
<style type="text/css">
	.st0{fill:#37bbb8;}
</style>
<path class="st0" d="M442,430.3v163.9c0,5.9-2.2,11-6.5,15.4c-4.3,4.3-9.4,6.5-15.4,6.5H289V484.9h-87.4V616H70.4
	c-5.9,0-11-2.2-15.4-6.5c-4.3-4.3-6.5-9.4-6.5-15.4V430.3c0-0.2,0.1-0.6,0.2-1c0.1-0.5,0.2-0.8,0.2-1l196.4-161.8l196.4,161.8
	C441.9,428.7,442,429.4,442,430.3z M518.2,406.7L497,432c-1.8,2-4.2,3.3-7.2,3.8h-1c-3,0-5.4-0.8-7.2-2.4l-236.3-197L9,433.4
	c-2.7,1.8-5.5,2.6-8.2,2.4c-3-0.5-5.4-1.7-7.2-3.8l-21.2-25.3c-1.8-2.3-2.6-5-2.4-8c0.2-3.1,1.5-5.5,3.8-7.3l245.6-204.5
	c7.3-5.9,15.9-8.9,26-8.9c10,0,18.7,3,26,8.9l83.3,69.6v-66.6c0-3.2,1-5.8,3.1-7.9c2.1-2,4.7-3.1,7.9-3.1h65.6c3.2,0,5.8,1,7.9,3.1
	c2,2,3.1,4.7,3.1,7.9v139.3l74.8,62.1c2.3,1.8,3.5,4.3,3.8,7.3C520.8,401.8,520,404.5,518.2,406.7z"/>
</svg>
