<svg xmlns="http://www.w3.org/2000/svg" xmlns:xlink="http://www.w3.org/1999/xlink" preserveAspectRatio="xMidYMid" width="28" height="22" viewBox="0 0 28 22">
  <defs>
    <style>
      .cls-1 {
        fill: #585c5e;
        fill-rule: evenodd;
      }
    </style>
  </defs>
  <path d="M2.000,4.400 L26.000,4.400 C27.102,4.400 28.000,3.410 28.000,2.200 C28.000,0.991 27.102,-0.000 26.000,-0.000 L2.000,-0.000 C0.899,-0.000 -0.000,0.991 -0.000,2.200 C-0.000,3.410 0.899,4.400 2.000,4.400 ZM26.000,8.800 L2.000,8.800 C0.899,8.800 -0.000,9.790 -0.000,11.000 C-0.000,12.210 0.899,13.200 2.000,13.200 L26.000,13.200 C27.102,13.200 28.000,12.210 28.000,11.000 C28.000,9.790 27.102,8.800 26.000,8.800 ZM26.000,17.600 L2.000,17.600 C0.899,17.600 -0.000,18.590 -0.000,19.800 C-0.000,21.010 0.899,22.000 2.000,22.000 L26.000,22.000 C27.102,22.000 28.000,21.010 28.000,19.800 C28.000,18.590 27.102,17.600 26.000,17.600 Z" class="cls-1"/>
</svg>
