<svg xmlns="http://www.w3.org/2000/svg" xmlns:xlink="http://www.w3.org/1999/xlink" preserveAspectRatio="xMidYMid" width="32" height="32" viewBox="0 0 32 32">
  <defs>
    <style>
      .cls-1 {
        fill: #61514c;
      }

      .cls-2 {
        fill: #000;
        opacity: 0.15;
      }

      .cls-2, .cls-3 {
        fill-rule: evenodd;
      }

      .cls-3 {
        fill: #fff;
        filter: url(#drop-shadow-1);
      }
    </style>

    <filter id="drop-shadow-1" filterUnits="userSpaceOnUse">
      <feOffset dx="0.707" dy="0.707" in="SourceAlpha"/>
      <feGaussianBlur stdDeviation="1.414" result="dropBlur"/>
      <feFlood flood-opacity="0.1"/>
      <feComposite operator="in" in2="dropBlur" result="dropShadowComp"/>
      <feComposite in="SourceGraphic" result="shadowed"/>
    </filter>
  </defs>
  <rect width="32" height="32" class="cls-1"/>
  <path d="M5.000,26.000 L6.000,9.000 L25.000,6.000 L32.000,13.000 L32.000,32.000 L11.000,32.000 L5.000,26.000 Z" class="cls-2"/>
  <path d="M23.304,27.017 L7.697,27.017 C6.212,27.017 4.998,25.805 4.998,24.323 L4.998,8.688 C4.998,7.205 6.212,5.993 7.697,5.993 L23.304,5.993 C24.788,5.993 26.002,7.205 26.002,8.688 L26.002,24.323 C26.002,25.805 24.788,27.017 23.304,27.017 ZM15.500,12.000 C13.015,12.000 11.000,14.015 11.000,16.500 C11.000,18.985 13.015,21.000 15.500,21.000 C17.985,21.000 20.000,18.985 20.000,16.500 C20.000,14.015 17.985,12.000 15.500,12.000 ZM23.004,9.793 C23.004,9.354 22.645,8.995 22.207,8.995 L20.801,8.995 C20.362,8.995 20.004,9.354 20.004,9.793 L20.004,11.198 C20.004,11.636 20.362,11.995 20.801,11.995 L22.207,11.995 C22.645,11.995 23.004,11.636 23.004,11.198 L23.004,9.793 ZM23.985,14.996 L21.837,14.996 C21.951,15.478 22.024,15.975 22.024,16.492 C22.024,20.091 19.107,23.009 15.508,23.009 C11.909,23.009 8.991,20.091 8.991,16.492 C8.991,15.976 9.057,15.477 9.171,14.996 L7.007,14.996 L7.007,24.177 C7.007,24.636 7.382,25.010 7.841,25.010 L23.150,25.010 C23.610,25.010 23.985,24.636 23.985,24.177 L23.985,14.996 Z" class="cls-3"/>
</svg>
