<svg xmlns="http://www.w3.org/2000/svg" xmlns:xlink="http://www.w3.org/1999/xlink" preserveAspectRatio="xMidYMid" width="297" height="87" viewBox="0 0 297 87">
  <defs>
    <style>
      .cls-1 {
        fill: #fefdfd;
        fill-rule: evenodd;
      }
    </style>
  </defs>
  <path d="M235.838,24.302 C235.838,24.302 237.457,8.565 263.232,8.937 C289.007,9.309 290.377,28.639 291.124,43.879 C291.871,59.120 280.530,78.266 263.730,81.052 C246.547,83.902 231.355,80.061 231.355,80.061 C231.355,80.061 215.417,75.353 209.440,72.874 C203.463,70.396 186.404,62.714 178.809,58.749 C171.213,54.784 103.475,17.487 91.895,12.654 C80.314,7.822 65.123,0.635 47.068,0.015 C29.013,-0.604 1.494,17.487 0.000,51.314 C0.000,51.314 1.370,82.539 32.126,87.000 C32.126,87.000 59.146,86.257 61.761,57.510 C61.761,57.510 58.648,79.318 35.612,82.539 C35.612,82.539 11.331,84.894 5.977,53.297 C5.977,53.297 3.487,13.893 45.823,6.459 C45.823,6.459 58.897,4.352 87.910,17.611 C116.923,30.869 155.648,50.571 165.361,55.527 C175.073,60.483 223.386,87.248 259.248,86.504 C259.248,86.504 287.887,89.230 296.105,51.562 C299.782,34.709 291.622,14.885 280.416,9.185 C269.209,3.485 236.710,4.352 235.838,24.302 Z" class="cls-1"/>
</svg>
