<svg xmlns="http://www.w3.org/2000/svg" xmlns:xlink="http://www.w3.org/1999/xlink" preserveAspectRatio="xMidYMid" width="297" height="87" viewBox="0 0 297 87">
  <defs>
    <style>
      .cls-1 {
        fill: #fefdfd;
        fill-rule: evenodd;
      }
    </style>
  </defs>
  <path d="M61.162,24.302 C61.162,24.302 59.543,8.565 33.768,8.937 C7.993,9.309 6.623,28.639 5.876,43.879 C5.129,59.120 16.470,78.266 33.270,81.052 C50.453,83.902 65.645,80.061 65.645,80.061 C65.645,80.061 81.583,75.353 87.560,72.874 C93.537,70.396 110.596,62.714 118.191,58.749 C125.787,54.784 193.525,17.487 205.105,12.654 C216.686,7.822 231.877,0.635 249.932,0.015 C267.987,-0.604 295.506,17.487 297.000,51.314 C297.000,51.314 295.630,82.539 264.874,87.000 C264.874,87.000 237.854,86.257 235.239,57.510 C235.239,57.510 238.352,79.318 261.388,82.539 C261.388,82.539 285.669,84.894 291.023,53.297 C291.023,53.297 293.513,13.893 251.177,6.459 C251.177,6.459 238.103,4.352 209.090,17.611 C180.077,30.869 141.352,50.571 131.639,55.527 C121.927,60.483 73.614,87.248 37.752,86.504 C37.752,86.504 9.113,89.230 0.895,51.562 C-2.782,34.709 5.378,14.885 16.584,9.185 C27.791,3.485 60.290,4.352 61.162,24.302 Z" class="cls-1"/>
</svg>
